<svg width="30" height="30" viewBox="0 0 30 30" fill="none" xmlns="http://www.w3.org/2000/svg"><path d="M9.36782 0.281168C9.74118 -0.0937231 10.3465 -0.0937226 10.7199 0.281169L24.7179 14.3365C25.0912 14.7114 25.0912 15.3192 24.7179 15.6941L22.681 17.7394C22.3076 18.1143 21.7023 18.1143 21.3289 17.7394L7.3309 3.68403C6.95754 3.30914 6.95754 2.70132 7.33091 2.32643L9.36782 0.281168Z" fill="currentColor"/><path d="M9.39956 29.7188C9.77293 30.0937 10.3783 30.0937 10.7516 29.7188L24.72 15.6933C25.0933 15.3184 25.0933 14.7105 24.72 14.3357L22.6004 12.2074C22.2271 11.8325 21.6217 11.8325 21.2484 12.2074L7.28002 26.233C6.90666 26.6079 6.90666 27.2157 7.28002 27.5906L9.39956 29.7188Z" fill="currentColor"/></svg>